<svg version="1.1" xmlns="http://www.w3.org/2000/svg" xmlns:xlink="http://www.w3.org/1999/xlink" width="800" height="500"><defs/><g><rect fill="rgb(255,255,255)" stroke="none" x="0" y="0" width="800" height="500" fill-opacity="1"/><g transform="scale(1,1)"><g><path fill="none" stroke="none"/><g><path fill="none" stroke="none" d=""/><g transform="translate(400,43)"/></g><g transform="translate(400,43)"><text fill="#3498db" stroke="#000000" font-family="&quot;Open Sans&quot;" font-size="26px" font-style="normal" font-weight="normal" text-decoration="normal" x="0" y="0" text-anchor="middle" dominant-baseline="text-after-edge" stroke-miterlimit="10" stroke-dasharray="">Bandwidth</text></g></g><g><path fill="none" stroke="none"/><g><path fill="none" stroke="none" d=""/><g transform="translate(76.240234375,69)"/></g><g transform="translate(76.240234375,69)"><text fill="#666666" stroke="#000000" font-family="&quot;Open Sans&quot;" font-size="16px" font-style="normal" font-weight="normal" text-decoration="normal" x="0" y="0" text-anchor="middle" dominant-baseline="text-after-edge" stroke-miterlimit="10" stroke-dasharray="">MB/s</text></g></g><g><path fill="rgb(255,255,255)" stroke="#666666" paint-order="stroke fill markers" d=" M 696.677734375 227 L 696.677734375 273 L 780.677734375 273 L 780.677734375 227 L 696.677734375 227 Z" stroke-miterlimit="10" stroke-dasharray="" fill-opacity="0"/></g><g><path fill="#000000" stroke="#2ecc70" paint-order="stroke fill markers" d=" M 704.177734375 240 L 719.177734375 240" stroke-miterlimit="10" stroke-dasharray=""/><path fill="#2ecc71" stroke="#ffffff" paint-order="stroke fill markers" d=" M 714.677734375 240 A 3 3 0 1 0 714.6777328750002 240.0029999995" stroke-miterlimit="10" stroke-width="4" stroke-dasharray=""/></g><g fill="#000000"><path fill="" stroke="none" d=""/><g transform="translate(722.177734375,247.5)"><text fill="" stroke="none" font-family="&quot;Open Sans&quot;" font-size="15px" font-style="normal" font-weight="normal" text-decoration="normal" x="0" y="0" text-anchor="start" dominant-baseline="text-after-edge">AVX512</text></g></g><g><path fill="#000000" stroke="#3498db" paint-order="stroke fill markers" d=" M 704.177734375 260 L 719.177734375 260" stroke-miterlimit="10" stroke-dasharray=""/><path fill="#3498db" stroke="#ffffff" paint-order="stroke fill markers" d=" M 714.677734375 260 A 3 3 0 1 0 714.6777328750002 260.0029999995" stroke-miterlimit="10" stroke-width="4" stroke-dasharray=""/></g><g fill="#000000"><path fill="" stroke="none" d=""/><g transform="translate(722.177734375,267.5)"><text fill="" stroke="none" font-family="&quot;Open Sans&quot;" font-size="15px" font-style="normal" font-weight="normal" text-decoration="normal" x="0" y="0" text-anchor="start" dominant-baseline="text-after-edge">native</text></g></g><g><g fill="#ffffff" stroke="#000000" stroke-miterlimit="10" stroke-dasharray=""><path fill="" stroke="" d=""/><g transform="translate(384.708984375,487)"><g><rect fill="" stroke="" x="-84.056640625" y="1" width="168.11328125" height="-14"/></g></g></g><g transform="translate(384.708984375,487)"><text fill="#1c1c1c" stroke="#000000" font-family="&quot;Open Sans&quot;" font-size="12px" font-style="normal" font-weight="normal" text-decoration="normal" x="0" y="0" text-anchor="middle" dominant-baseline="text-after-edge" stroke-miterlimit="10" stroke-dasharray="">Picture 1: bandwidth comparison</text></g></g><g><g transform="translate(72.240234375,398) rotate(-45,0,0)"><text fill="#000000" stroke="none" font-family="&quot;Open Sans&quot;" font-size="12px" font-style="normal" font-weight="normal" text-decoration="normal" x="0" y="0" text-anchor="end" dominant-baseline="text-before-edge">1</text></g><g transform="translate(139.240234375,398) rotate(-45,0,0)"><text fill="#000000" stroke="none" font-family="&quot;Open Sans&quot;" font-size="12px" font-style="normal" font-weight="normal" text-decoration="normal" x="0" y="0" text-anchor="end" dominant-baseline="text-before-edge">10</text></g><g transform="translate(206.240234375,398) rotate(-45,0,0)"><text fill="#000000" stroke="none" font-family="&quot;Open Sans&quot;" font-size="12px" font-style="normal" font-weight="normal" text-decoration="normal" x="0" y="0" text-anchor="end" dominant-baseline="text-before-edge">100</text></g><g transform="translate(273.240234375,398) rotate(-45,0,0)"><text fill="#000000" stroke="none" font-family="&quot;Open Sans&quot;" font-size="12px" font-style="normal" font-weight="normal" text-decoration="normal" x="0" y="0" text-anchor="end" dominant-baseline="text-before-edge">1000</text></g><g transform="translate(340.240234375,398) rotate(-45,0,0)"><text fill="#000000" stroke="none" font-family="&quot;Open Sans&quot;" font-size="12px" font-style="normal" font-weight="normal" text-decoration="normal" x="0" y="0" text-anchor="end" dominant-baseline="text-before-edge">10000</text></g><g transform="translate(407.240234375,398) rotate(-45,0,0)"><text fill="#000000" stroke="none" font-family="&quot;Open Sans&quot;" font-size="12px" font-style="normal" font-weight="normal" text-decoration="normal" x="0" y="0" text-anchor="end" dominant-baseline="text-before-edge">100000</text></g><g transform="translate(474.240234375,398) rotate(-45,0,0)"><text fill="#000000" stroke="none" font-family="&quot;Open Sans&quot;" font-size="12px" font-style="normal" font-weight="normal" text-decoration="normal" x="0" y="0" text-anchor="end" dominant-baseline="text-before-edge">1000000</text></g><g transform="translate(541.240234375,398) rotate(-45,0,0)"><text fill="#000000" stroke="none" font-family="&quot;Open Sans&quot;" font-size="12px" font-style="normal" font-weight="normal" text-decoration="normal" x="0" y="0" text-anchor="end" dominant-baseline="text-before-edge">10000000</text></g><g transform="translate(608.240234375,398) rotate(-45,0,0)"><text fill="#000000" stroke="none" font-family="&quot;Open Sans&quot;" font-size="12px" font-style="normal" font-weight="normal" text-decoration="normal" x="0" y="0" text-anchor="end" dominant-baseline="text-before-edge">100000000</text></g><g transform="translate(675.240234375,398) rotate(-45,0,0)"><text fill="#000000" stroke="none" font-family="&quot;Open Sans&quot;" font-size="12px" font-style="normal" font-weight="normal" text-decoration="normal" x="0" y="0" text-anchor="end" dominant-baseline="text-before-edge">1000000000</text></g><text fill="#000000" stroke="none" font-family="&quot;Open Sans&quot;" font-size="12px" font-style="normal" font-weight="normal" text-decoration="normal" x="71.240234375" y="369" text-anchor="end" dominant-baseline="central">125,000</text><text fill="#000000" stroke="none" font-family="&quot;Open Sans&quot;" font-size="12px" font-style="normal" font-weight="normal" text-decoration="normal" x="71.240234375" y="350" text-anchor="end" dominant-baseline="central">250,000</text><text fill="#000000" stroke="none" font-family="&quot;Open Sans&quot;" font-size="12px" font-style="normal" font-weight="normal" text-decoration="normal" x="71.240234375" y="331" text-anchor="end" dominant-baseline="central">375,000</text><text fill="#000000" stroke="none" font-family="&quot;Open Sans&quot;" font-size="12px" font-style="normal" font-weight="normal" text-decoration="normal" x="71.240234375" y="312" text-anchor="end" dominant-baseline="central">500,000</text><text fill="#000000" stroke="none" font-family="&quot;Open Sans&quot;" font-size="12px" font-style="normal" font-weight="normal" text-decoration="normal" x="71.240234375" y="293" text-anchor="end" dominant-baseline="central">625,000</text><text fill="#000000" stroke="none" font-family="&quot;Open Sans&quot;" font-size="12px" font-style="normal" font-weight="normal" text-decoration="normal" x="71.240234375" y="274" text-anchor="end" dominant-baseline="central">750,000</text><text fill="#000000" stroke="none" font-family="&quot;Open Sans&quot;" font-size="12px" font-style="normal" font-weight="normal" text-decoration="normal" x="71.240234375" y="255" text-anchor="end" dominant-baseline="central">875,000</text><text fill="#000000" stroke="none" font-family="&quot;Open Sans&quot;" font-size="12px" font-style="normal" font-weight="normal" text-decoration="normal" x="71.240234375" y="236" text-anchor="end" dominant-baseline="central">1,000,000</text><text fill="#000000" stroke="none" font-family="&quot;Open Sans&quot;" font-size="12px" font-style="normal" font-weight="normal" text-decoration="normal" x="71.240234375" y="217" text-anchor="end" dominant-baseline="central">1,125,000</text><text fill="#000000" stroke="none" font-family="&quot;Open Sans&quot;" font-size="12px" font-style="normal" font-weight="normal" text-decoration="normal" x="71.240234375" y="198" text-anchor="end" dominant-baseline="central">1,250,000</text><text fill="#000000" stroke="none" font-family="&quot;Open Sans&quot;" font-size="12px" font-style="normal" font-weight="normal" text-decoration="normal" x="71.240234375" y="179" text-anchor="end" dominant-baseline="central">1,375,000</text><text fill="#000000" stroke="none" font-family="&quot;Open Sans&quot;" font-size="12px" font-style="normal" font-weight="normal" text-decoration="normal" x="71.240234375" y="160" text-anchor="end" dominant-baseline="central">1,500,000</text><text fill="#000000" stroke="none" font-family="&quot;Open Sans&quot;" font-size="12px" font-style="normal" font-weight="normal" text-decoration="normal" x="71.240234375" y="141" text-anchor="end" dominant-baseline="central">1,625,000</text><text fill="#000000" stroke="none" font-family="&quot;Open Sans&quot;" font-size="12px" font-style="normal" font-weight="normal" text-decoration="normal" x="71.240234375" y="122" text-anchor="end" dominant-baseline="central">1,750,000</text><text fill="#000000" stroke="none" font-family="&quot;Open Sans&quot;" font-size="12px" font-style="normal" font-weight="normal" text-decoration="normal" x="71.240234375" y="103" text-anchor="end" dominant-baseline="central">1,875,000</text><text fill="#000000" stroke="#000000" font-family="&quot;Open Sans&quot;" font-size="12px" font-style="normal" font-weight="normal" text-decoration="normal" x="71.240234375" y="84" text-anchor="end" dominant-baseline="central" stroke-miterlimit="10" stroke-dasharray="">2,000,000</text><path fill="none" stroke="rgb(0,0,0)" paint-order="fill stroke markers" d=" M 76.240234375 388 L 689.240234375 388" stroke-opacity="0.6" stroke-miterlimit="10" stroke-dasharray=""/><path fill="none" stroke="rgb(0,0,0)" paint-order="fill stroke markers" d=" M 81.240234375 393 L 81.240234375 388" stroke-opacity="0.56" stroke-miterlimit="10" stroke-dasharray=""/><path fill="none" stroke="rgb(0,0,0)" paint-order="fill stroke markers" d=" M 148.240234375 393 L 148.240234375 79" stroke-opacity="0.56" stroke-miterlimit="10" stroke-dasharray=""/><path fill="none" stroke="rgb(0,0,0)" paint-order="fill stroke markers" d=" M 215.240234375 393 L 215.240234375 79" stroke-opacity="0.56" stroke-miterlimit="10" stroke-dasharray=""/><path fill="none" stroke="rgb(0,0,0)" paint-order="fill stroke markers" d=" M 282.240234375 393 L 282.240234375 79" stroke-opacity="0.56" stroke-miterlimit="10" stroke-dasharray=""/><path fill="none" stroke="rgb(0,0,0)" paint-order="fill stroke markers" d=" M 349.240234375 393 L 349.240234375 79" stroke-opacity="0.56" stroke-miterlimit="10" stroke-dasharray=""/><path fill="none" stroke="rgb(0,0,0)" paint-order="fill stroke markers" d=" M 416.240234375 393 L 416.240234375 79" stroke-opacity="0.56" stroke-miterlimit="10" stroke-dasharray=""/><path fill="none" stroke="rgb(0,0,0)" paint-order="fill stroke markers" d=" M 483.240234375 393 L 483.240234375 79" stroke-opacity="0.56" stroke-miterlimit="10" stroke-dasharray=""/><path fill="none" stroke="rgb(0,0,0)" paint-order="fill stroke markers" d=" M 550.240234375 393 L 550.240234375 79" stroke-opacity="0.56" stroke-miterlimit="10" stroke-dasharray=""/><path fill="none" stroke="rgb(0,0,0)" paint-order="fill stroke markers" d=" M 617.240234375 393 L 617.240234375 79" stroke-opacity="0.56" stroke-miterlimit="10" stroke-dasharray=""/><path fill="none" stroke="rgb(0,0,0)" paint-order="fill stroke markers" d=" M 684.240234375 393 L 684.240234375 79" stroke-opacity="0.56" stroke-miterlimit="10" stroke-dasharray=""/><path fill="none" stroke="rgb(0,0,0)" paint-order="fill stroke markers" d=" M 81.240234375 393 L 81.240234375 79" stroke-opacity="0.6" stroke-miterlimit="10" stroke-dasharray=""/><path fill="none" stroke="rgb(0,0,0)" paint-order="fill stroke markers" d=" M 76.240234375 369 L 81.240234375 369" stroke-opacity="0.56" stroke-miterlimit="10" stroke-dasharray=""/><path fill="none" stroke="rgb(0,0,0)" paint-order="fill stroke markers" d=" M 76.240234375 350 L 81.240234375 350" stroke-opacity="0.56" stroke-miterlimit="10" stroke-dasharray=""/><path fill="none" stroke="rgb(0,0,0)" paint-order="fill stroke markers" d=" M 76.240234375 331 L 689.240234375 331" stroke-opacity="0.56" stroke-miterlimit="10" stroke-dasharray=""/><path fill="none" stroke="rgb(0,0,0)" paint-order="fill stroke markers" d=" M 76.240234375 312 L 81.240234375 312" stroke-opacity="0.56" stroke-miterlimit="10" stroke-dasharray=""/><path fill="none" stroke="rgb(0,0,0)" paint-order="fill stroke markers" d=" M 76.240234375 293 L 81.240234375 293" stroke-opacity="0.56" stroke-miterlimit="10" stroke-dasharray=""/><path fill="none" stroke="rgb(0,0,0)" paint-order="fill stroke markers" d=" M 76.240234375 274 L 689.240234375 274" stroke-opacity="0.56" stroke-miterlimit="10" stroke-dasharray=""/><path fill="none" stroke="rgb(0,0,0)" paint-order="fill stroke markers" d=" M 76.240234375 255 L 81.240234375 255" stroke-opacity="0.56" stroke-miterlimit="10" stroke-dasharray=""/><path fill="none" stroke="rgb(0,0,0)" paint-order="fill stroke markers" d=" M 76.240234375 236 L 81.240234375 236" stroke-opacity="0.56" stroke-miterlimit="10" stroke-dasharray=""/><path fill="none" stroke="rgb(0,0,0)" paint-order="fill stroke markers" d=" M 76.240234375 217 L 689.240234375 217" stroke-opacity="0.56" stroke-miterlimit="10" stroke-dasharray=""/><path fill="none" stroke="rgb(0,0,0)" paint-order="fill stroke markers" d=" M 76.240234375 198 L 81.240234375 198" stroke-opacity="0.56" stroke-miterlimit="10" stroke-dasharray=""/><path fill="none" stroke="rgb(0,0,0)" paint-order="fill stroke markers" d=" M 76.240234375 179 L 81.240234375 179" stroke-opacity="0.56" stroke-miterlimit="10" stroke-dasharray=""/><path fill="none" stroke="rgb(0,0,0)" paint-order="fill stroke markers" d=" M 76.240234375 160 L 689.240234375 160" stroke-opacity="0.56" stroke-miterlimit="10" stroke-dasharray=""/><path fill="none" stroke="rgb(0,0,0)" paint-order="fill stroke markers" d=" M 76.240234375 141 L 81.240234375 141" stroke-opacity="0.56" stroke-miterlimit="10" stroke-dasharray=""/><path fill="none" stroke="rgb(0,0,0)" paint-order="fill stroke markers" d=" M 76.240234375 122 L 81.240234375 122" stroke-opacity="0.56" stroke-miterlimit="10" stroke-dasharray=""/><path fill="none" stroke="rgb(0,0,0)" paint-order="fill stroke markers" d=" M 76.240234375 103 L 689.240234375 103" stroke-opacity="0.56" stroke-miterlimit="10" stroke-dasharray=""/><path fill="none" stroke="rgb(0,0,0)" paint-order="fill stroke markers" d=" M 76.240234375 84 L 81.240234375 84" stroke-opacity="0.56" stroke-miterlimit="10" stroke-dasharray=""/><g><path fill="none" stroke="rgb(0,0,0)" paint-order="fill stroke markers" d="" stroke-opacity="0.56" stroke-miterlimit="10" stroke-dasharray=""/><path fill="none" stroke="#3498db" paint-order="fill stroke markers" d=" M 81.240234375 387.51729816" stroke-miterlimit="10" stroke-dasharray=""/><path fill="none" stroke="#3498db" paint-order="fill stroke markers" d=" M 81.240234375 387.51729816 Q 121.57162205748472 387.765084043557 148.240234375 385.42586176 C 175.1716220574847 383.063590283557 188.5392561516841 380.22183224712774 215.240234375 375.76356376 C 242.13925615168412 371.27222789512774 255.61928658187085 362.2084159422669 282.240234375 363.05185088 C 309.21928658187085 363.9066316862669 322.0386913349516 375.9355710711291 349.240234375 380.00910312 C 375.63869133495155 383.9623700471291 389.42819771857745 382.24385359093964 416.240234375 383.11884832 C 443.0281977185774 383.99305743093964 456.4415217635134 383.8158772974925 483.240234375 384.38211272 C 510.04152176351334 384.94840254549246 523.4365655646612 385.636677811248 550.240234375 385.95016144 C 577.0365655646613 386.26355925124795 590.4404170323695 385.87951930770987 617.240234375 385.94931632 C 644.0404170323695 386.0191142837099 657.440234375 386.159215856 684.240234375 386.29914888" stroke-miterlimit="10" stroke-dasharray=""/></g><path fill="#3498db" stroke="#ffffff" paint-order="stroke fill markers" d=" M 84.240234375 387.51729816 A 3 3 0 1 0 84.24023287500013 387.5202981595" stroke-miterlimit="10" stroke-width="4" stroke-dasharray=""/><path fill="#3498db" stroke="#ffffff" paint-order="stroke fill markers" d=" M 151.240234375 385.42586176 A 3 3 0 1 0 151.24023287500012 385.42886175949997" stroke-miterlimit="10" stroke-width="4" stroke-dasharray=""/><path fill="#3498db" stroke="#ffffff" paint-order="stroke fill markers" d=" M 218.240234375 375.76356376 A 3 3 0 1 0 218.24023287500012 375.7665637595" stroke-miterlimit="10" stroke-width="4" stroke-dasharray=""/><path fill="#3498db" stroke="#ffffff" paint-order="stroke fill markers" d=" M 285.240234375 363.05185088 A 3 3 0 1 0 285.2402328750001 363.0548508795" stroke-miterlimit="10" stroke-width="4" stroke-dasharray=""/><path fill="#3498db" stroke="#ffffff" paint-order="stroke fill markers" d=" M 352.240234375 380.00910312 A 3 3 0 1 0 352.2402328750001 380.0121031195" stroke-miterlimit="10" stroke-width="4" stroke-dasharray=""/><path fill="#3498db" stroke="#ffffff" paint-order="stroke fill markers" d=" M 419.240234375 383.11884832 A 3 3 0 1 0 419.2402328750001 383.1218483195" stroke-miterlimit="10" stroke-width="4" stroke-dasharray=""/><path fill="#3498db" stroke="#ffffff" paint-order="stroke fill markers" d=" M 486.240234375 384.38211272 A 3 3 0 1 0 486.2402328750001 384.3851127195" stroke-miterlimit="10" stroke-width="4" stroke-dasharray=""/><path fill="#3498db" stroke="#ffffff" paint-order="stroke fill markers" d=" M 553.240234375 385.95016144 A 3 3 0 1 0 553.2402328750002 385.9531614395" stroke-miterlimit="10" stroke-width="4" stroke-dasharray=""/><path fill="#3498db" stroke="#ffffff" paint-order="stroke fill markers" d=" M 620.240234375 385.94931632 A 3 3 0 1 0 620.2402328750002 385.95231631949997" stroke-miterlimit="10" stroke-width="4" stroke-dasharray=""/><path fill="#3498db" stroke="#ffffff" paint-order="stroke fill markers" d=" M 687.240234375 386.29914888 A 3 3 0 1 0 687.2402328750002 386.3021488795" stroke-miterlimit="10" stroke-width="4" stroke-dasharray=""/><g transform="translate(81.240234375,367.51729816) rotate(0,0,0)"><g><path fill="none" stroke="none" d=""/><g transform="translate(0,0)"/></g><text fill="#000000" stroke="none" font-family="&quot;Open Sans&quot;" font-size="12px" font-style="italic" font-weight="normal" text-decoration="normal" x="0" y="0" text-anchor="middle" dominant-baseline="text-before-edge">3,175.67</text></g><g transform="translate(148.240234375,365.42586176) rotate(0,0,0)"><g><path fill="none" stroke="none" d=""/><g transform="translate(0,0)"/></g><text fill="#000000" stroke="none" font-family="&quot;Open Sans&quot;" font-size="12px" font-style="italic" font-weight="normal" text-decoration="normal" x="0" y="0" text-anchor="middle" dominant-baseline="text-before-edge">16,935.12</text></g><g transform="translate(215.240234375,355.76356376) rotate(0,0,0)"><g><path fill="none" stroke="none" d=""/><g transform="translate(0,0)"/></g><text fill="#000000" stroke="none" font-family="&quot;Open Sans&quot;" font-size="12px" font-style="italic" font-weight="normal" text-decoration="normal" x="0" y="0" text-anchor="middle" dominant-baseline="text-before-edge">80,502.87</text></g><g transform="translate(282.240234375,343.05185088) rotate(0,0,0)"><g><path fill="none" stroke="none" d=""/><g transform="translate(0,0)"/></g><text fill="#000000" stroke="none" font-family="&quot;Open Sans&quot;" font-size="12px" font-style="italic" font-weight="normal" text-decoration="normal" x="0" y="0" text-anchor="middle" dominant-baseline="text-before-edge">164,132.56</text></g><g transform="translate(349.240234375,360.00910312) rotate(0,0,0)"><g><path fill="none" stroke="none" d=""/><g transform="translate(0,0)"/></g><text fill="#000000" stroke="none" font-family="&quot;Open Sans&quot;" font-size="12px" font-style="italic" font-weight="normal" text-decoration="normal" x="0" y="0" text-anchor="middle" dominant-baseline="text-before-edge">52,571.69</text></g><g transform="translate(416.240234375,363.11884832) rotate(0,0,0)"><g><path fill="none" stroke="none" d=""/><g transform="translate(0,0)"/></g><text fill="#000000" stroke="none" font-family="&quot;Open Sans&quot;" font-size="12px" font-style="italic" font-weight="normal" text-decoration="normal" x="0" y="0" text-anchor="middle" dominant-baseline="text-before-edge">32,112.84</text></g><g transform="translate(483.240234375,364.38211272) rotate(0,0,0)"><g><path fill="none" stroke="none" d=""/><g transform="translate(0,0)"/></g><text fill="#000000" stroke="none" font-family="&quot;Open Sans&quot;" font-size="12px" font-style="italic" font-weight="normal" text-decoration="normal" x="0" y="0" text-anchor="middle" dominant-baseline="text-before-edge">23,801.89</text></g><g transform="translate(550.240234375,365.95016144) rotate(0,0,0)"><g><path fill="none" stroke="none" d=""/><g transform="translate(0,0)"/></g><text fill="#000000" stroke="none" font-family="&quot;Open Sans&quot;" font-size="12px" font-style="italic" font-weight="normal" text-decoration="normal" x="0" y="0" text-anchor="middle" dominant-baseline="text-before-edge">13,485.78</text></g><g transform="translate(617.240234375,365.94931632) rotate(0,0,0)"><g><path fill="none" stroke="none" d=""/><g transform="translate(0,0)"/></g><text fill="#000000" stroke="none" font-family="&quot;Open Sans&quot;" font-size="12px" font-style="italic" font-weight="normal" text-decoration="normal" x="0" y="0" text-anchor="middle" dominant-baseline="text-before-edge">13,491.34</text></g><g transform="translate(684.240234375,366.29914888) rotate(0,0,0)"><g><path fill="none" stroke="none" d=""/><g transform="translate(0,0)"/></g><text fill="#000000" stroke="none" font-family="&quot;Open Sans&quot;" font-size="12px" font-style="italic" font-weight="normal" text-decoration="normal" x="0" y="0" text-anchor="middle" dominant-baseline="text-before-edge">11,189.81</text></g><g><path fill="none" stroke="#ffffff" paint-order="fill stroke markers" d="" stroke-miterlimit="10" stroke-width="4" stroke-dasharray=""/><path fill="none" stroke="#2ecc70" paint-order="fill stroke markers" d=" M 81.240234375 387.39321296" stroke-miterlimit="10" stroke-dasharray=""/><path fill="none" stroke="#2ecc70" paint-order="fill stroke markers" d=" M 81.240234375 387.39321296 Q 122.01092044444397 388 148.240234375 384.6454284 C 175.61092044444396 379.96137314874045 195.90639790505736 382.4311561606506 215.240234375 364.46125568 C 249.50639790505736 332.6124527046506 250.56301912907855 297.4508819838824 282.240234375 260.09866976 C 304.1630191290785 234.2484015998824 328.3463671551006 196.66138512015414 349.240234375 206.45505472000002 C 381.94636715510063 221.78553686415415 381.8425395862794 284.36268871592836 416.240234375 322.90904912 C 435.44253958627934 344.42732183592835 455.03482046947124 347.7492220753216 483.240234375 356.61663752 C 508.63482046947126 364.60036524332156 523.3992882420648 362.0349772459457 550.240234375 365.03690704 C 576.9992882420648 368.0296778859457 590.3861047581763 369.77060979593205 617.240234375 371.60338912 C 643.9861047581763 373.42877981193203 657.440234375 373.15075489599997 684.240234375 374.18233208" stroke-miterlimit="10" stroke-dasharray=""/></g><path fill="#2ecc71" stroke="#ffffff" paint-order="stroke fill markers" d=" M 84.240234375 387.39321296 A 3 3 0 1 0 84.24023287500013 387.3962129595" stroke-miterlimit="10" stroke-width="4" stroke-dasharray=""/><path fill="#2ecc71" stroke="#ffffff" paint-order="stroke fill markers" d=" M 151.240234375 384.6454284 A 3 3 0 1 0 151.24023287500012 384.6484283995" stroke-miterlimit="10" stroke-width="4" stroke-dasharray=""/><path fill="#2ecc71" stroke="#ffffff" paint-order="stroke fill markers" d=" M 218.240234375 364.46125568 A 3 3 0 1 0 218.24023287500012 364.4642556795" stroke-miterlimit="10" stroke-width="4" stroke-dasharray=""/><path fill="#2ecc71" stroke="#ffffff" paint-order="stroke fill markers" d=" M 285.240234375 260.09866976 A 3 3 0 1 0 285.2402328750001 260.1016697595" stroke-miterlimit="10" stroke-width="4" stroke-dasharray=""/><path fill="#2ecc71" stroke="#ffffff" paint-order="stroke fill markers" d=" M 352.240234375 206.45505472000002 A 3 3 0 1 0 352.2402328750001 206.4580547195" stroke-miterlimit="10" stroke-width="4" stroke-dasharray=""/><path fill="#2ecc71" stroke="#ffffff" paint-order="stroke fill markers" d=" M 419.240234375 322.90904912 A 3 3 0 1 0 419.2402328750001 322.9120491195" stroke-miterlimit="10" stroke-width="4" stroke-dasharray=""/><path fill="#2ecc71" stroke="#ffffff" paint-order="stroke fill markers" d=" M 486.240234375 356.61663752 A 3 3 0 1 0 486.2402328750001 356.6196375195" stroke-miterlimit="10" stroke-width="4" stroke-dasharray=""/><path fill="#2ecc71" stroke="#ffffff" paint-order="stroke fill markers" d=" M 553.240234375 365.03690704 A 3 3 0 1 0 553.2402328750002 365.0399070395" stroke-miterlimit="10" stroke-width="4" stroke-dasharray=""/><path fill="#2ecc71" stroke="#ffffff" paint-order="stroke fill markers" d=" M 620.240234375 371.60338912 A 3 3 0 1 0 620.2402328750002 371.60638911949997" stroke-miterlimit="10" stroke-width="4" stroke-dasharray=""/><path fill="#2ecc71" stroke="#ffffff" paint-order="stroke fill markers" d=" M 687.240234375 374.18233208 A 3 3 0 1 0 687.2402328750002 374.1853320795" stroke-miterlimit="10" stroke-width="4" stroke-dasharray=""/><g transform="translate(81.240234375,367.39321296) rotate(0,0,0)"><g><path fill="none" stroke="none" d=""/><g transform="translate(0,0)"/></g><text fill="#000000" stroke="none" font-family="&quot;Open Sans&quot;" font-size="12px" font-style="italic" font-weight="normal" text-decoration="normal" x="0" y="0" text-anchor="middle" dominant-baseline="text-before-edge">3,992.02</text></g><g transform="translate(148.240234375,364.6454284) rotate(0,0,0)"><g><path fill="none" stroke="none" d=""/><g transform="translate(0,0)"/></g><text fill="#000000" stroke="none" font-family="&quot;Open Sans&quot;" font-size="12px" font-style="italic" font-weight="normal" text-decoration="normal" x="0" y="0" text-anchor="middle" dominant-baseline="text-before-edge">22,069.55</text></g><g transform="translate(215.240234375,344.46125568) rotate(0,0,0)"><g><path fill="none" stroke="none" d=""/><g transform="translate(0,0)"/></g><text fill="#000000" stroke="none" font-family="&quot;Open Sans&quot;" font-size="12px" font-style="italic" font-weight="normal" text-decoration="normal" x="0" y="0" text-anchor="middle" dominant-baseline="text-before-edge">154,860.16</text></g><g transform="translate(282.240234375,240.09866976) rotate(0,0,0)"><g><path fill="none" stroke="none" d=""/><g transform="translate(0,0)"/></g><text fill="#000000" stroke="none" font-family="&quot;Open Sans&quot;" font-size="12px" font-style="italic" font-weight="normal" text-decoration="normal" x="0" y="0" text-anchor="middle" dominant-baseline="text-before-edge">841,456.12</text></g><g transform="translate(349.240234375,186.45505472000002) rotate(0,0,0)"><g><path fill="none" stroke="none" d=""/><g transform="translate(0,0)"/></g><text fill="#000000" stroke="none" font-family="&quot;Open Sans&quot;" font-size="12px" font-style="italic" font-weight="normal" text-decoration="normal" x="0" y="0" text-anchor="middle" dominant-baseline="text-before-edge">1,194,374.64</text></g><g transform="translate(416.240234375,302.90904912) rotate(0,0,0)"><g><path fill="none" stroke="none" d=""/><g transform="translate(0,0)"/></g><text fill="#000000" stroke="none" font-family="&quot;Open Sans&quot;" font-size="12px" font-style="italic" font-weight="normal" text-decoration="normal" x="0" y="0" text-anchor="middle" dominant-baseline="text-before-edge">428,229.94</text></g><g transform="translate(483.240234375,336.61663752) rotate(0,0,0)"><g><path fill="none" stroke="none" d=""/><g transform="translate(0,0)"/></g><text fill="#000000" stroke="none" font-family="&quot;Open Sans&quot;" font-size="12px" font-style="italic" font-weight="normal" text-decoration="normal" x="0" y="0" text-anchor="middle" dominant-baseline="text-before-edge">206,469.49</text></g><g transform="translate(550.240234375,345.03690704) rotate(0,0,0)"><g><path fill="none" stroke="none" d=""/><g transform="translate(0,0)"/></g><text fill="#000000" stroke="none" font-family="&quot;Open Sans&quot;" font-size="12px" font-style="italic" font-weight="normal" text-decoration="normal" x="0" y="0" text-anchor="middle" dominant-baseline="text-before-edge">151,072.98</text></g><g transform="translate(617.240234375,351.60338912) rotate(0,0,0)"><g><path fill="none" stroke="none" d=""/><g transform="translate(0,0)"/></g><text fill="#000000" stroke="none" font-family="&quot;Open Sans&quot;" font-size="12px" font-style="italic" font-weight="normal" text-decoration="normal" x="0" y="0" text-anchor="middle" dominant-baseline="text-before-edge">107,872.44</text></g><g transform="translate(684.240234375,354.18233208) rotate(0,0,0)"><g><path fill="none" stroke="none" d=""/><g transform="translate(0,0)"/></g><text fill="#000000" stroke="none" font-family="&quot;Open Sans&quot;" font-size="12px" font-style="italic" font-weight="normal" text-decoration="normal" x="0" y="0" text-anchor="middle" dominant-baseline="text-before-edge">90,905.71</text></g></g></g></g></svg>
